<?xml version="1.0" encoding="UTF-8"?>
<svg width="1440px" height="687px" viewBox="0 0 1440 687" version="1.1" xmlns="http://www.w3.org/2000/svg" xmlns:xlink="http://www.w3.org/1999/xlink">
    <!-- Generator: Sketch 62 (91390) - https://sketch.com -->
    <title>Hero - A7</title>
    <desc>Created with Sketch.</desc>
    <g id="Hero---A7" stroke="none" stroke-width="1" fill="none" fill-rule="evenodd">
        <path d="M1440,687 L1380,675.267 C1320,663.533 1200,640.067 1080,619.533 C960,599 840,581.4 720,590.2 C600,599 480,634.2 360,651.8 C240,669.4 120,669.4 60,669.4 L0,669.4 L0,0 L60,0 C120,0 240,0 360,0 C480,0 600,0 720,0 C840,0 960,0 1080,0 C1200,0 1320,0 1380,0 L1440,0 L1440,687 Z" id="Path" fill="#2A63BC"></path>
        <g id="Vector1" style="mix-blend-mode: multiply;" transform="translate(467.000000, 0.000000)" fill="#2A63BC" fill-rule="nonzero">
            <path d="M973,0 L973,427.776477 C965.739097,423.499259 958.236164,419.221065 950.733232,415.656716 C896.035407,390.167964 824.878561,406.031511 764.372014,422.96485 C703.864491,439.897214 633.676741,457.008039 577.52576,433.480411 C534.928464,415.656716 514.114852,379.473943 499.108987,345.073831 C484.345151,310.672745 471.275526,273.955563 436.665223,248.466811 C396.731234,219.057764 336.465742,210.858298 279.830701,208.184305 C223.438665,205.511287 164.625353,206.224157 112.83189,189.290818 C52.5666902,169.506975 8.51756506,125.303198 1.01469081,76.999883 C-2.61574103,53.4721572 3.67697301,25.6666277 16.9885597,0 L973,0 L973,0 Z" id="Path"></path>
        </g>
        <g id="Vector2" style="mix-blend-mode: multiply;" transform="translate(819.000000, 0.000000)" fill="#2A63BC" fill-rule="nonzero">
            <path d="M621,0 L621,687 C474.777269,658.509051 358.230376,636.620248 271.359321,621.333592 C141.052739,598.403608 70.6186021,593.254115 53.018224,591.416414 C49.0931043,588.622401 45.0096489,585.209427 41.8569675,582.069795 C14.7736418,555.286483 29.8899553,519.331487 64.8463874,495.850295 C99.4881143,472.186411 149.875174,458.611576 199.63341,447.605164 C249.390668,436.414107 301.038309,426.875086 344.812452,408.898076 C411.261407,381.197401 452.831245,334.052325 452.201443,286.539912 C451.571642,238.844809 409.057102,192.066092 341.663444,165.100089 C293.165789,145.654711 235.219155,136.483027 179.477804,125.292947 C124.052332,113.919198 67.3657893,99.2433309 31.1496562,72.2771328 C4.38121178,51.9147819 -7.27090944,23.4808994 4.69615168,0 L621,0 Z" id="Path"></path>
        </g>
        <g id="Group" transform="translate(1103.000000, -218.000000)" stroke="#FFFFFF" stroke-width="2.2999">
            <path d="M33.06,219.31531 C16.41,246.5854 5.6,277.3185 1.38,309.0254 C-1.22,328.612 -0.35,351.013 14.14,364.54 C24.95,374.712 40.84,377.201 55.66,376.66 C70.47,376.119 85.17,372.98 99.88,373.846 C114.69,374.712 130.26,380.555 137.83,393.325 C144.96,405.445 143.12,420.487 142.26,434.446 C141.39,448.406 142.48,464.314 152.96,473.512 C167.88,486.606 192.21,478.49 209.83,487.58 C226.49,496.237 233.3,518.313 250.49,525.888 C264.87,532.273 281.41,526.321 296.01,520.369 C311.14,514.201 326.28,507.816 341.42,501.54" id="Path"></path>
            <path d="M50.03,201.1352 C33.81,227.75605 23.11,257.8398 19,288.7892 C16.41,307.9433 17.38,329.911 31.44,343.113 C42.03,352.961 57.6,355.45 71.98,354.909 C86.47,354.367 100.85,351.337 115.23,352.203 C129.72,353.069 144.96,358.804 152.31,371.249 C159.23,383.044 157.5,397.762 156.64,411.505 C155.77,425.14 156.86,440.723 167.13,449.705 C181.72,462.474 205.51,454.574 222.7,463.556 C239.03,471.997 245.62,493.64 262.49,500.999 C276.55,507.167 292.76,501.431 306.93,495.588 C321.74,489.528 336.55,483.36 351.36,477.083" id="Path"></path>
            <path d="M66.9,182.9551 C51.01,209.0349 40.63,238.3611 36.63,268.6612 C34.14,287.3824 35,308.809 48.74,321.7947 C59.01,331.426 74.25,333.915 88.42,333.374 C102.58,332.833 116.64,329.911 130.69,330.668 C144.85,331.534 159.78,337.053 166.91,349.281 C173.72,360.86 171.99,375.253 171.13,388.563 C170.26,401.982 171.34,417.132 181.4,425.897 C195.67,438.342 218.92,430.659 235.78,439.424 C251.79,447.649 258.27,468.75 274.71,476.001 C288.44,482.061 304.22,476.434 318.17,470.698 C332.66,464.747 347.15,458.795 361.53,452.626" id="Path"></path>
            <path d="M83.87,164.6668 C68.41,190.0973 58.25,218.77423 54.25,248.3169 C51.76,266.6052 52.63,287.5989 66.14,300.1518 C76.2,309.5665 91.12,311.9472 104.85,311.4061 C118.69,310.8651 132.42,307.9433 146.15,308.809 C159.99,309.6747 174.59,315.0854 181.51,326.989 C188.1,338.243 186.48,352.311 185.62,365.405 C184.86,378.499 185.83,393.325 195.67,401.874 C209.62,414.102 232.32,406.527 248.76,415.076 C264.33,423.192 270.71,443.753 286.71,450.895 C300.12,456.847 315.58,451.328 329.2,445.701 C343.36,439.857 357.53,434.014 371.58,428.062" id="Path"></path>
            <path d="M100.74,146.4867 C85.6,171.3761 75.66,199.4038 71.87,228.18891 C69.49,246.0444 70.36,266.497 83.44,278.8334 C93.28,288.0317 107.77,290.3042 121.28,289.8714 C134.8,289.3303 148.21,286.5167 161.61,287.3824 C175.02,288.14 189.29,293.4425 196.1,305.1297 C202.59,316.1676 200.97,329.911 200.21,342.572 C199.46,355.341 200.32,369.734 209.94,378.175 C223.57,390.078 245.73,382.72 261.73,391.052 C276.98,398.952 283.14,419.08 298.82,426.006 C311.9,431.741 327.04,426.439 340.23,421.028 C354.07,415.401 367.8,409.665 381.64,403.822" id="Path"></path>
            <path d="M117.72,128.3066 C102.9,152.5468 93.28,179.9251 89.5,208.061 C87.23,225.483578 87.98,245.3951 100.74,257.407 C110.36,266.3888 124.53,268.6613 137.61,268.1202 C150.8,267.6874 163.78,264.8738 176.97,265.6313 C190.05,266.3888 204,271.5831 210.7,282.9457 C216.97,293.6589 215.46,307.0776 214.7,319.5223 C213.94,331.967 214.81,346.035 224.21,354.259 C237.51,365.838 259.14,358.696 274.82,366.812 C289.63,374.495 295.68,394.191 311.04,400.9 C323.79,406.527 338.5,401.333 351.47,396.03 C364.99,390.511 378.39,384.884 391.8,379.257" id="Path"></path>
            <path d="M134.58,110.127 C120.2,133.7174 110.8,160.4464 107.12,187.8248 C104.85,204.8145 105.61,224.29318 118.15,235.98038 C127.56,244.7458 141.29,246.9101 154.15,246.4772 C167.02,246.0444 179.67,243.339 192.54,244.0965 C205.29,244.854 218.92,249.9401 225.4,260.978 C231.57,271.4749 230.05,284.4607 229.3,296.5807 C228.54,308.7008 229.4,322.4441 238.59,330.452 C251.57,341.815 272.65,334.781 287.9,342.68 C302.39,350.147 308.22,369.301 323.14,375.902 C335.58,381.421 349.96,376.335 362.61,371.141 C375.8,365.73 388.88,360.319 401.96,354.8" id="Path"></path>
            <path d="M151.56,91.838 C137.5,114.888 128.31,140.8595 124.74,167.5886 C122.58,184.1455 123.34,203.0831 135.45,214.5538 C144.53,223.10281 158.05,225.267116 170.48,224.72604 C183.02,224.29318 195.35,221.58781 207.89,222.34532 C220.32,223.10282 233.62,227.97249 239.89,238.794 C245.84,248.9662 244.43,261.7355 243.68,273.5309 C242.92,285.3263 243.78,298.745 252.76,306.5365 C265.41,317.5744 285.95,310.7568 300.76,318.4401 C314.82,325.7987 320.55,344.412 335.15,350.796 C347.26,356.207 361.31,351.229 373.53,346.143 C386.29,340.841 399.15,335.538 411.91,330.236" id="Path"></path>
            <path d="M168.42,73.658 C154.8,96.059 145.83,121.381 142.37,147.4606 C140.21,163.5846 140.96,182.0894 152.86,193.1273 C161.72,201.4598 174.8,203.5159 187.02,203.0831 C199.13,202.6502 211.24,200.053 223.46,200.8105 C235.57,201.568 248.43,206.3295 254.6,216.82634 C260.44,226.782104 259.03,239.1186 258.27,250.6976 C257.52,262.1684 258.38,275.2624 267.14,282.8374 C279.46,293.5507 299.47,286.9496 313.95,294.4164 C327.69,301.5586 333.31,319.7387 347.47,325.9069 C359.26,331.101 372.88,326.232 384.88,321.3619 C397.32,316.2758 409.86,311.0815 422.18,305.8872" id="Path"></path>
            <path d="M185.4,55.478 C172.1,77.337 163.34,101.902 159.99,127.2245 C157.94,142.9156 158.59,160.8793 170.15,171.7008 C178.8,179.8169 191.56,181.873 203.35,181.4401 C215.13,181.0072 226.92,178.5183 238.81,179.1676 C250.6,179.8169 263.14,184.5783 269.19,194.7505 C274.92,204.3817 273.41,216.50172 272.76,227.64785 C272.11,238.794 272.87,251.5633 281.3,258.9219 C293.3,269.4188 312.77,262.9259 326.82,270.1763 C340.23,277.102 345.63,294.7411 359.37,300.9093 C370.83,305.9954 384.12,301.2339 395.8,296.4725 C407.91,291.4946 420.02,286.5167 432.13,281.3224" id="Path"></path>
            <path d="M202.27,37.298 C189.29,58.508 180.86,82.424 177.61,107.097 C175.56,122.355 176.32,139.7775 187.45,150.3825 C195.89,158.2822 208.21,160.2301 219.78,159.7972 C231.24,159.3643 242.7,156.9836 254.27,157.6329 C265.73,158.2822 277.95,162.8272 283.79,172.783 C289.3,182.1977 287.9,193.8849 287.25,204.8146 C286.6,215.7443 287.36,228.08078 295.57,235.22296 C307.25,245.3952 326.17,239.1187 339.8,246.1527 C352.77,252.862 358.07,270.0682 371.47,276.02 C382.72,280.9979 395.59,276.3446 406.83,271.6914 C418.62,266.8217 430.4,261.952 442.19,256.9742" id="Path"></path>
            <path d="M219.24,19.01 C206.7,39.679 198.48,62.837 195.24,86.86 C193.29,101.686 193.94,118.676 204.86,128.8477 C212.97,136.531 225.08,138.3706 236.22,138.046 C247.35,137.6131 258.49,135.2324 269.73,135.9899 C280.87,136.6392 292.76,141.076 298.39,150.7071 C303.79,159.7972 302.39,171.268 301.74,181.7648 C301.09,192.3699 301.85,204.3817 309.85,211.3075 C321.09,221.15501 339.58,215.095 352.88,222.02074 C365.53,228.51363 370.61,245.2869 383.69,251.0223 C394.61,255.7838 407.05,251.347 418.07,246.8019 C429.54,242.1487 441,237.3872 452.35,232.51758" id="Path"></path>
            <path d="M236.11,0.829 C223.89,20.849 215.89,43.358 212.86,66.624 C210.92,81.017 211.56,97.465 222.16,107.421 C230.05,114.888 241.73,116.728 252.65,116.295 C263.46,115.862 274.27,113.589 285.09,114.239 C295.9,114.888 307.36,119.108 312.87,128.523 C318.06,137.3966 316.77,148.4345 316.12,158.715 C315.47,168.9954 316.23,180.6826 324.01,187.3919 C334.93,197.023 352.88,191.0712 365.74,197.7805 C377.96,204.1652 382.94,220.28919 395.59,225.916367 C406.18,230.56961 418.29,226.241014 428.99,221.91242 C440.13,217.3674 451.27,212.7142 462.3,208.0609" id="Path"></path>
        </g>
    </g>
</svg>